<svg xmlns="http://www.w3.org/2000/svg" fill='#095609' width='150' shape-rendering="geometricPrecision" text-rendering="geometricPrecision" image-rendering="optimizeQuality" fill-rule="evenodd" clip-rule="evenodd" viewBox="0 0 512 511.998"><path d="M189.76 8.786c136.532-36.587 276.872 44.44 313.456 180.972C539.799 326.29 458.775 466.63 322.24 503.213 185.708 539.797 45.368 458.772 8.784 322.241-27.799 185.706 53.225 45.369 189.76 8.786zm.997 123.354c17.914 0 32.432 27.513 32.432 61.451 0 33.939-14.518 61.452-32.432 61.452s-32.433-27.513-32.433-61.452c0-33.938 14.519-61.451 32.433-61.451zM92.549 335.752c.893-16.761 5.712-28.912 14.183-37.049 8.47-8.137 20.558-12.219 35.994-12.849a.93.93 0 0 1 .693 1.591l-24.244 24.11a167.141 167.141 0 0 0 36.37 34.469c30.842 21.479 67.715 31.85 103.998 31.349 36.276-.498 71.975-11.863 100.471-33.846 11.598-8.941 22.013-19.657 30.785-32.117l-22.215-22.095a.933.933 0 0 1 .692-1.591c15.436.63 27.524 4.712 35.995 12.849 8.471 8.137 13.29 20.288 14.182 37.049a.934.934 0 0 1-.884.977.936.936 0 0 1-.704-.271L402.23 322.78c-15.918 26.689-35.861 47.472-58.101 62.191-25.673 16.994-54.42 25.924-83.592 26.565-29.167.644-58.766-6.998-86.153-23.135-24.835-14.636-47.858-36.263-67.086-65.032l-13.16 13.089a.934.934 0 0 1-1.589-.706zM321.243 132.14c17.914 0 32.433 27.513 32.433 61.451 0 33.939-14.519 61.452-32.433 61.452s-32.432-27.513-32.432-61.452c0-33.938 14.518-61.451 32.432-61.451z"/></svg>